<svg xmlns="http://www.w3.org/2000/svg" viewBox="0 0 256 256">
  <circle cx="102" cy="49" r="23" fill="#94A3B8"/>
  <rect x="90" y="75" width="24" height="86" rx="12" fill="#64748B"/>
  <polygon points="91,91 106,108 62,150 46,133" fill="#64748B"/>
  <polygon points="108,90 96,110 135,139 149,120" fill="#64748B"/>
  <polygon points="91,148 113,157 78,230 56,219" fill="#64748B"/>
  <polygon points="113,148 91,158 128,230 150,219" fill="#64748B"/>
  <rect x="173" y="51" width="48" height="15" rx="7" fill="#64748B"/>
  <rect x="211" y="58" width="15" height="42" rx="7" fill="#64748B"/>
  <polygon points="211,91 226,98 212,126 198,119" fill="#64748B"/>
  <circle cx="205" cy="151" r="8" fill="#64748B"/>
</svg>
